M48
;Layer_Color=9474304
;FILE_FORMAT=4:3
METRIC,LZ
;TYPE=PLATED
T1F00S00C0.800
%
T01
X0060325Y008255
X0062865
Y008509
X0060325
Y008763
X0062865
Y009017
X0060325
Y009271
X0062865
Y009525
X0060325
Y009779
X0062865
Y010033
X0060325
X0065405
Y009779
Y009525
Y009271
Y009017
Y008763
Y008509
Y008255
Y0108585
X0060325
X0073025
X0075565
Y0111125
X0078105
X0078105Y0108585
X0073025Y0111125
X0080645
Y0108585
Y010033
Y009779
Y009525
Y009271
Y009017
Y008763
Y008509
Y008255
M30
