G04 Layer_Physical_Order=1*
G04 Layer_Color=255*
%FSLAX42Y42*%
%MOMM*%
G71*
G01*
G75*
%ADD10C,0.25*%
%ADD11R,0.90X0.70*%
%ADD12C,0.50*%
%ADD13C,0.30*%
%ADD14O,2.00X1.90*%
%ADD15C,2.00*%
%ADD16R,2.00X2.00*%
G36*
X14525Y8030D02*
X10015D01*
Y11940D01*
X14525Y11940D01*
X14525Y8030D01*
D02*
G37*
%LPC*%
G36*
X13600Y11640D02*
X13556Y11631D01*
X13519Y11606D01*
X13494Y11569D01*
X13485Y11525D01*
X13494Y11481D01*
X13519Y11444D01*
X13556Y11419D01*
X13600Y11410D01*
X13644Y11419D01*
X13681Y11444D01*
X13706Y11481D01*
X13715Y11525D01*
X13706Y11569D01*
X13681Y11606D01*
X13644Y11631D01*
X13600Y11640D01*
D02*
G37*
G36*
X10710Y11640D02*
X10666Y11631D01*
X10629Y11606D01*
X10604Y11569D01*
X10595Y11525D01*
X10604Y11481D01*
X10629Y11444D01*
X10666Y11419D01*
X10710Y11410D01*
X10754Y11419D01*
X10791Y11444D01*
X10816Y11481D01*
X10825Y11525D01*
X10816Y11569D01*
X10791Y11606D01*
X10754Y11631D01*
X10710Y11640D01*
D02*
G37*
G36*
X11885Y11207D02*
X11680D01*
X11643Y11199D01*
X11612Y11178D01*
X11528Y11095D01*
X11486D01*
X11473Y11113D01*
X11438Y11139D01*
X11398Y11156D01*
X11355Y11161D01*
X11345D01*
X11302Y11156D01*
X11262Y11139D01*
X11227Y11113D01*
X11201Y11078D01*
X11184Y11038D01*
X11180Y11005D01*
X11037Y10862D01*
X11016Y10830D01*
X11008Y10793D01*
Y9729D01*
X10990D01*
Y9519D01*
Y9369D01*
X11215D01*
X11227Y9353D01*
X11231Y9350D01*
Y9338D01*
X11227Y9335D01*
X11201Y9300D01*
X11184Y9260D01*
X11179Y9217D01*
X11184Y9174D01*
X11201Y9134D01*
X11227Y9099D01*
X11262Y9073D01*
X11302Y9056D01*
X11345Y9051D01*
X11355D01*
X11398Y9056D01*
X11438Y9073D01*
X11473Y9099D01*
X11489Y9120D01*
X11567D01*
X11604Y9128D01*
X11635Y9149D01*
X11715Y9228D01*
X12810D01*
Y8601D01*
X13102D01*
Y8672D01*
X13367D01*
Y8824D01*
X14372D01*
Y9321D01*
X14395D01*
Y9661D01*
X14322D01*
Y9728D01*
X14314Y9765D01*
X14293Y9797D01*
X13105Y10986D01*
X13106Y11000D01*
X13101Y11043D01*
X13084Y11083D01*
X13058Y11118D01*
X13023Y11144D01*
X12983Y11161D01*
X12940Y11166D01*
X12930D01*
X12887Y11161D01*
X12847Y11144D01*
X12812Y11118D01*
X12795Y11095D01*
X12769D01*
X12753Y11116D01*
X12718Y11142D01*
X12678Y11159D01*
X12635Y11165D01*
X12625D01*
X12582Y11159D01*
X12542Y11142D01*
X12507Y11116D01*
X12491Y11095D01*
X12037D01*
X11953Y11178D01*
X11922Y11199D01*
X11885Y11207D01*
D02*
G37*
G36*
X14335Y11060D02*
X14283Y11050D01*
X14239Y11021D01*
X14210Y10977D01*
X14200Y10925D01*
X14210Y10873D01*
X14239Y10829D01*
X14283Y10800D01*
X14335Y10790D01*
X14387Y10800D01*
X14431Y10829D01*
X14460Y10873D01*
X14470Y10925D01*
X14460Y10977D01*
X14431Y11021D01*
X14387Y11050D01*
X14335Y11060D01*
D02*
G37*
G36*
X10200Y11005D02*
X10148Y10995D01*
X10104Y10966D01*
X10075Y10922D01*
X10065Y10870D01*
X10075Y10818D01*
X10104Y10774D01*
X10148Y10745D01*
X10200Y10735D01*
X10252Y10745D01*
X10296Y10774D01*
X10325Y10818D01*
X10335Y10870D01*
X10325Y10922D01*
X10296Y10966D01*
X10252Y10995D01*
X10200Y11005D01*
D02*
G37*
G36*
X14335Y10195D02*
X14283Y10185D01*
X14239Y10156D01*
X14210Y10112D01*
X14200Y10060D01*
X14210Y10008D01*
X14239Y9964D01*
X14283Y9935D01*
X14335Y9925D01*
X14387Y9935D01*
X14431Y9964D01*
X14460Y10008D01*
X14470Y10060D01*
X14460Y10112D01*
X14431Y10156D01*
X14387Y10185D01*
X14335Y10195D01*
D02*
G37*
G36*
X10200Y9480D02*
X10148Y9470D01*
X10104Y9441D01*
X10075Y9397D01*
X10065Y9345D01*
X10075Y9293D01*
X10104Y9249D01*
X10148Y9220D01*
X10200Y9210D01*
X10252Y9220D01*
X10296Y9249D01*
X10325Y9293D01*
X10335Y9345D01*
X10325Y9397D01*
X10296Y9441D01*
X10252Y9470D01*
X10200Y9480D01*
D02*
G37*
G36*
X10710Y8790D02*
X10666Y8781D01*
X10629Y8756D01*
X10604Y8719D01*
X10595Y8675D01*
X10604Y8631D01*
X10629Y8594D01*
X10666Y8569D01*
X10710Y8560D01*
X10754Y8569D01*
X10791Y8594D01*
X10816Y8631D01*
X10825Y8675D01*
X10816Y8719D01*
X10791Y8756D01*
X10754Y8781D01*
X10710Y8790D01*
D02*
G37*
G36*
X13785Y8575D02*
X13741Y8566D01*
X13704Y8541D01*
X13679Y8504D01*
X13670Y8460D01*
X13679Y8416D01*
X13704Y8379D01*
X13741Y8354D01*
X13785Y8345D01*
X13829Y8354D01*
X13866Y8379D01*
X13891Y8416D01*
X13900Y8460D01*
X13891Y8504D01*
X13866Y8541D01*
X13829Y8566D01*
X13785Y8575D01*
D02*
G37*
%LPD*%
G36*
X11928Y10930D02*
X11960Y10909D01*
X11997Y10901D01*
X12491D01*
X12507Y10881D01*
X12533Y10861D01*
X12533Y10845D01*
X12528Y10842D01*
X12527Y10841D01*
X11969D01*
X11932Y10834D01*
X11917Y10824D01*
X11906Y10832D01*
X11915Y10878D01*
X11905Y10930D01*
X11895Y10945D01*
X11905Y10953D01*
X11928Y10930D01*
D02*
G37*
G36*
X12528Y10647D02*
X12533Y10643D01*
X12533Y10628D01*
X12507Y10608D01*
X12491Y10587D01*
X11966D01*
X11961Y10599D01*
X12009Y10647D01*
X12527D01*
X12528Y10647D01*
D02*
G37*
G36*
X12507Y10373D02*
X12511Y10370D01*
Y10357D01*
X12507Y10354D01*
X12491Y10333D01*
X11486D01*
X11473Y10351D01*
X11469Y10354D01*
Y10366D01*
X11473Y10369D01*
X11491Y10393D01*
X12491D01*
X12507Y10373D01*
D02*
G37*
G36*
X12812Y10120D02*
X12816Y10117D01*
Y10105D01*
X12812Y10102D01*
X12786Y10067D01*
X12769Y10027D01*
X12764Y9984D01*
X12769Y9941D01*
X12786Y9901D01*
X12812Y9866D01*
X12847Y9840D01*
X12858Y9835D01*
Y9631D01*
X12834Y9612D01*
X12807Y9577D01*
X12789Y9535D01*
X12784Y9491D01*
X12789Y9447D01*
X12795Y9432D01*
X12788Y9422D01*
X11675D01*
X11638Y9414D01*
X11607Y9393D01*
X11527Y9314D01*
X11489D01*
X11473Y9335D01*
X11469Y9338D01*
Y9350D01*
X11473Y9353D01*
X11499Y9388D01*
X11516Y9428D01*
X11521Y9471D01*
X11516Y9514D01*
X11499Y9554D01*
X11473Y9589D01*
X11469Y9592D01*
Y9604D01*
X11473Y9607D01*
X11499Y9642D01*
X11516Y9682D01*
X11521Y9725D01*
X11516Y9768D01*
X11499Y9808D01*
X11473Y9843D01*
X11469Y9846D01*
Y9858D01*
X11473Y9861D01*
X11499Y9896D01*
X11516Y9936D01*
X11521Y9979D01*
X11516Y10022D01*
X11499Y10062D01*
X11473Y10097D01*
X11469Y10100D01*
Y10112D01*
X11473Y10115D01*
X11491Y10139D01*
X12491D01*
X12507Y10119D01*
X12542Y10092D01*
X12582Y10075D01*
X12625Y10070D01*
X12635D01*
X12678Y10075D01*
X12718Y10092D01*
X12753Y10119D01*
X12769Y10139D01*
X12798D01*
X12812Y10120D01*
D02*
G37*
G36*
X13366Y9688D02*
Y9631D01*
X13342Y9612D01*
X13330D01*
X13295Y9639D01*
X13253Y9657D01*
X13209Y9662D01*
X13165Y9657D01*
X13123Y9639D01*
X13088Y9612D01*
X13076D01*
X13052Y9631D01*
Y9862D01*
X13058Y9866D01*
X13084Y9901D01*
X13099Y9937D01*
X13112Y9942D01*
X13366Y9688D01*
D02*
G37*
D10*
X10740Y11525D02*
G03*
X10740Y11525I-30J0D01*
G01*
X13815Y8460D02*
G03*
X13815Y8460I-30J0D01*
G01*
X10740Y8675D02*
G03*
X10740Y8675I-30J0D01*
G01*
X13630Y11525D02*
G03*
X13630Y11525I-30J0D01*
G01*
X11830Y10878D02*
G03*
X11830Y10878I-50J0D01*
G01*
X14385Y10060D02*
G03*
X14385Y10060I-50J0D01*
G01*
Y10925D02*
G03*
X14385Y10925I-50J0D01*
G01*
X10250Y9345D02*
G03*
X10250Y9345I-50J0D01*
G01*
Y10870D02*
G03*
X10250Y10870I-50J0D01*
G01*
D11*
X11105Y9624D02*
D03*
Y9474D02*
D03*
D12*
X11675Y9325D02*
X13043D01*
X11567Y9217D02*
X11675Y9325D01*
X11345Y9217D02*
X11567D01*
X11105Y10793D02*
X11307Y10995D01*
X11345D01*
X11348Y10998D01*
X11568D01*
X11997D02*
X12955D01*
X11885Y11110D02*
X11997Y10998D01*
X11680Y11110D02*
X11885D01*
X12955Y10998D02*
X14225Y9728D01*
X13043Y9325D02*
X13209Y9491D01*
X11105Y9624D02*
Y10793D01*
X11310Y9474D02*
X11310Y9474D01*
X11105Y9474D02*
X11310D01*
X11875Y10650D02*
X11969Y10744D01*
X11685Y10650D02*
X11875D01*
X11969Y10744D02*
X12955D01*
X11591D02*
X11685Y10650D01*
X11310Y10744D02*
X11591D01*
X11568Y10998D02*
X11680Y11110D01*
X11310Y10236D02*
X12955D01*
X11310Y10490D02*
X12955D01*
X12955Y10490D01*
Y9491D02*
Y9982D01*
Y10236D02*
X13463Y9728D01*
Y9491D02*
Y9728D01*
X13717Y9491D02*
Y9728D01*
X12955Y10490D02*
X13717Y9728D01*
X13971Y9491D02*
Y9728D01*
X12955Y10744D02*
X13971Y9728D01*
X14225Y9491D02*
Y9728D01*
D13*
X12880Y9230D02*
X13032D01*
X12982Y9179D01*
X13032Y9128D01*
X12880D01*
X13032Y9078D02*
X12880D01*
Y9001D01*
X12905Y8976D01*
X13007D01*
X13032Y9001D01*
Y9078D01*
X12880Y8925D02*
X13032D01*
Y8849D01*
X13007Y8824D01*
X12956D01*
X12931Y8849D01*
Y8925D01*
Y8875D02*
X12880Y8824D01*
X13032Y8773D02*
X12880D01*
Y8697D01*
X12905Y8671D01*
X13007D01*
X13032Y8697D01*
Y8773D01*
X13145Y9275D02*
X13247D01*
X13297Y9224D01*
X13247Y9173D01*
X13145D01*
X13221D01*
Y9275D01*
X13297Y9123D02*
Y9072D01*
Y9097D01*
X13145D01*
Y9123D01*
Y9072D01*
Y8996D02*
X13297D01*
X13145Y8894D01*
X13297D01*
Y8843D02*
Y8742D01*
Y8793D01*
X13145D01*
X13517Y9198D02*
X13542Y9224D01*
Y9275D01*
X13517Y9300D01*
X13492D01*
X13466Y9275D01*
Y9224D01*
X13441Y9198D01*
X13415D01*
X13390Y9224D01*
Y9275D01*
X13415Y9300D01*
X13542Y9148D02*
X13390D01*
Y9071D01*
X13415Y9046D01*
X13517D01*
X13542Y9071D01*
Y9148D01*
X13390Y8995D02*
X13492D01*
X13542Y8945D01*
X13492Y8894D01*
X13390D01*
X13466D01*
Y8995D01*
X13772Y9198D02*
X13797Y9224D01*
Y9275D01*
X13772Y9300D01*
X13747D01*
X13721Y9275D01*
Y9224D01*
X13696Y9198D01*
X13670D01*
X13645Y9224D01*
Y9275D01*
X13670Y9300D01*
X13772Y9046D02*
X13797Y9071D01*
Y9122D01*
X13772Y9148D01*
X13670D01*
X13645Y9122D01*
Y9071D01*
X13670Y9046D01*
X13797Y8995D02*
X13645D01*
Y8894D01*
X14027Y9198D02*
X14052Y9224D01*
Y9275D01*
X14027Y9300D01*
X13925D01*
X13900Y9275D01*
Y9224D01*
X13925Y9198D01*
X13976D01*
Y9249D01*
X13900Y9148D02*
X14052D01*
X13900Y9046D01*
X14052D01*
Y8995D02*
X13900D01*
Y8919D01*
X13925Y8894D01*
X14027D01*
X14052Y8919D01*
Y8995D01*
X14302Y9300D02*
X14201D01*
X14150Y9249D01*
X14201Y9198D01*
X14302D01*
X14277Y9046D02*
X14302Y9071D01*
Y9122D01*
X14277Y9148D01*
X14175D01*
X14150Y9122D01*
Y9071D01*
X14175Y9046D01*
X14277Y8894D02*
X14302Y8919D01*
Y8970D01*
X14277Y8995D01*
X14175D01*
X14150Y8970D01*
Y8919D01*
X14175Y8894D01*
D14*
X12630Y10998D02*
D03*
Y10744D02*
D03*
Y10490D02*
D03*
Y10236D02*
D03*
X12935Y9984D02*
D03*
Y10238D02*
D03*
Y10492D02*
D03*
Y10746D02*
D03*
Y11000D02*
D03*
X11350Y10995D02*
D03*
Y10741D02*
D03*
Y10487D02*
D03*
Y10233D02*
D03*
Y9979D02*
D03*
Y9725D02*
D03*
Y9471D02*
D03*
Y9217D02*
D03*
D15*
X12955Y9491D02*
D03*
X13209D02*
D03*
X13463D02*
D03*
X13717D02*
D03*
X13971D02*
D03*
D16*
X14225D02*
D03*
M02*
