G04 Layer_Physical_Order=1*
G04 Layer_Color=255*
%FSLAX43Y43*%
%MOMM*%
G71*
G01*
G75*
%ADD10R,3.300X1.800*%
%ADD11R,1.000X1.800*%
%ADD12R,1.700X1.100*%
%ADD13C,0.500*%
%ADD14C,0.300*%
%ADD15C,0.254*%
%ADD16O,2.500X1.500*%
%ADD17C,1.800*%
%ADD18R,1.800X1.800*%
G36*
X139139Y76380D02*
X108511D01*
Y97991D01*
X139139D01*
Y76380D01*
D02*
G37*
%LPC*%
G36*
X132330Y95042D02*
Y94118D01*
X133254D01*
X133210Y94336D01*
X132945Y94733D01*
X132548Y94998D01*
X132330Y95042D01*
D02*
G37*
G36*
X131830D02*
X131612Y94998D01*
X131215Y94733D01*
X130950Y94336D01*
X130906Y94118D01*
X131830D01*
Y95042D01*
D02*
G37*
G36*
X137332Y96185D02*
X133685D01*
Y93553D01*
X137332D01*
Y96185D01*
D02*
G37*
G36*
X112133Y94368D02*
X111883D01*
Y93547D01*
X113154D01*
X113122Y93707D01*
X112890Y94054D01*
X112543Y94286D01*
X112133Y94368D01*
D02*
G37*
G36*
X111383D02*
X111133D01*
X110723Y94286D01*
X110376Y94054D01*
X110144Y93707D01*
X110112Y93547D01*
X111383D01*
Y94368D01*
D02*
G37*
G36*
X124138Y95068D02*
X120238D01*
Y92668D01*
X124138D01*
Y95068D01*
D02*
G37*
G36*
X133254Y93618D02*
X132080D01*
X130906D01*
X130950Y93400D01*
X131215Y93003D01*
X131612Y92738D01*
X131988Y92663D01*
Y92533D01*
X131612Y92458D01*
X131215Y92193D01*
X130950Y91796D01*
X130942Y91756D01*
X113089D01*
X112890Y92054D01*
X112641Y92221D01*
Y92373D01*
X112890Y92540D01*
X113122Y92887D01*
X113154Y93047D01*
X111633D01*
X110112D01*
X110144Y92887D01*
X110376Y92540D01*
X110625Y92373D01*
Y92221D01*
X110376Y92054D01*
X110144Y91707D01*
X110062Y91297D01*
X110144Y90887D01*
X110376Y90540D01*
X110625Y90373D01*
Y90221D01*
X110376Y90054D01*
X110144Y89707D01*
X110062Y89297D01*
X110144Y88887D01*
X110376Y88540D01*
X110625Y88373D01*
Y88221D01*
X110376Y88054D01*
X110144Y87707D01*
X110062Y87297D01*
X110144Y86887D01*
X110376Y86540D01*
X110723Y86308D01*
X111133Y86226D01*
X112133D01*
X112543Y86308D01*
X112890Y86540D01*
X113089Y86838D01*
X117142D01*
X117318Y86873D01*
X117466Y86973D01*
X118681Y88187D01*
X119069D01*
X119088Y88068D01*
X119088Y88060D01*
Y87118D01*
X119888D01*
X120688D01*
Y88060D01*
X120688Y88068D01*
X120707Y88187D01*
X121369D01*
X121388Y88068D01*
X121388D01*
Y85668D01*
X121729D01*
Y84973D01*
X121038D01*
Y84582D01*
X118540D01*
X118364Y84547D01*
X118216Y84447D01*
X115745Y81977D01*
X113089D01*
X112890Y82275D01*
X112543Y82507D01*
X112133Y82589D01*
X111133D01*
X110723Y82507D01*
X110376Y82275D01*
X110144Y81928D01*
X110062Y81518D01*
X110144Y81108D01*
X110376Y80761D01*
X110625Y80594D01*
Y80442D01*
X110376Y80275D01*
X110144Y79928D01*
X110112Y79768D01*
X111633D01*
X113154D01*
X113122Y79928D01*
X112890Y80275D01*
X112641Y80442D01*
Y80594D01*
X112890Y80761D01*
X113089Y81059D01*
X115935D01*
X116111Y81094D01*
X116259Y81194D01*
X118730Y83664D01*
X121038D01*
Y83273D01*
X125638D01*
Y84973D01*
X124947D01*
Y85668D01*
X125288D01*
Y85789D01*
X130880D01*
Y85048D01*
X133280D01*
Y87448D01*
X132264D01*
X132144Y87463D01*
X132144Y87463D01*
X132144D01*
X132133Y87575D01*
X132149Y87578D01*
X132548Y87658D01*
X132945Y87923D01*
X133210Y88320D01*
X133304Y88788D01*
X133210Y89256D01*
X132945Y89653D01*
X132548Y89918D01*
X132172Y89993D01*
Y90123D01*
X132548Y90198D01*
X132945Y90463D01*
X133210Y90860D01*
X133304Y91328D01*
X133210Y91796D01*
X132945Y92193D01*
X132548Y92458D01*
X132172Y92533D01*
Y92663D01*
X132548Y92738D01*
X132945Y93003D01*
X133210Y93400D01*
X133254Y93618D01*
D02*
G37*
G36*
X137078Y93391D02*
X133431D01*
Y90759D01*
Y88234D01*
Y85694D01*
X138602D01*
Y88326D01*
X137078D01*
Y90759D01*
Y93391D01*
D02*
G37*
G36*
X120688Y86618D02*
X120138D01*
Y85668D01*
X120688D01*
Y86618D01*
D02*
G37*
G36*
X119638D02*
X119088D01*
Y85668D01*
X119638D01*
Y86618D01*
D02*
G37*
G36*
X125638Y82273D02*
X124738D01*
Y81673D01*
X125638D01*
Y82273D01*
D02*
G37*
G36*
X121938D02*
X121038D01*
Y81673D01*
X121938D01*
Y82273D01*
D02*
G37*
G36*
X125638Y81173D02*
X124738D01*
Y80573D01*
X125638D01*
Y81173D01*
D02*
G37*
G36*
X124238Y82273D02*
X122438D01*
Y81423D01*
Y80573D01*
X124238D01*
Y81423D01*
Y82273D01*
D02*
G37*
G36*
X121938Y81173D02*
X121038D01*
Y80573D01*
X121938D01*
Y81173D01*
D02*
G37*
G36*
X113154Y79268D02*
X111883D01*
Y78447D01*
X112133D01*
X112543Y78529D01*
X112890Y78761D01*
X113122Y79108D01*
X113154Y79268D01*
D02*
G37*
G36*
X111383D02*
X110112D01*
X110144Y79108D01*
X110376Y78761D01*
X110723Y78529D01*
X111133Y78447D01*
X111383D01*
Y79268D01*
D02*
G37*
%LPD*%
G36*
X131215Y90463D02*
X131612Y90198D01*
X131988Y90123D01*
Y89993D01*
X131612Y89918D01*
X131368Y89756D01*
X113089D01*
X112890Y90054D01*
X112641Y90221D01*
Y90373D01*
X112890Y90540D01*
X113089Y90838D01*
X130964D01*
X131215Y90463D01*
D02*
G37*
G36*
X117917Y88721D02*
X116952Y87756D01*
X113089D01*
X112890Y88054D01*
X112641Y88221D01*
Y88373D01*
X112890Y88540D01*
X113089Y88838D01*
X117868D01*
X117917Y88721D01*
D02*
G37*
G36*
X130856Y88788D02*
X130950Y88320D01*
X131215Y87923D01*
X131612Y87658D01*
X132011Y87578D01*
X132027Y87575D01*
X132016Y87463D01*
X132016D01*
X132016Y87463D01*
X131896Y87448D01*
X130880D01*
Y86707D01*
X125298D01*
X125288Y86717D01*
Y88068D01*
X124947D01*
Y88110D01*
X124912Y88286D01*
X124812Y88434D01*
X124526Y88721D01*
X124575Y88838D01*
X130815D01*
X130856Y88788D01*
D02*
G37*
G36*
X123688Y88068D02*
X123688D01*
Y85668D01*
X124029D01*
Y84973D01*
X122647D01*
Y85668D01*
X122988D01*
Y88068D01*
X122988D01*
X123007Y88187D01*
X123669D01*
X123688Y88068D01*
D02*
G37*
D10*
X122188Y93868D02*
D03*
D11*
X119888Y86868D02*
D03*
X124488D02*
D03*
X122188D02*
D03*
D12*
X122188Y84123D02*
D03*
Y81423D02*
D03*
X124488Y84123D02*
D03*
Y81423D02*
D03*
D13*
X107950Y98552D02*
X139700D01*
X107950Y75819D02*
Y98552D01*
Y75819D02*
X139700D01*
Y98552D01*
D14*
X111633Y81518D02*
X115935D01*
X118540Y84123D01*
X122188D01*
X125108Y86248D02*
X132080D01*
X124488Y86868D02*
X125108Y86248D01*
X124488Y86868D02*
Y88110D01*
X123952Y88646D02*
X124488Y88110D01*
X118491Y88646D02*
X123952D01*
X117142Y87297D02*
X118491Y88646D01*
X111633Y87297D02*
X117142D01*
X131571Y89297D02*
X132080Y88788D01*
X111633Y89297D02*
X131571D01*
X132049Y91297D02*
X132080Y91328D01*
X111633Y91297D02*
X132049D01*
X122188Y84123D02*
Y86868D01*
X122188Y81423D02*
X124488D01*
X124488Y84123D02*
Y86868D01*
D15*
X135255Y95631D02*
X134239D01*
Y94869D01*
X134747Y95123D01*
X135001D01*
X135255Y94869D01*
Y94361D01*
X135001Y94107D01*
X134493D01*
X134239Y94361D01*
X135763Y95631D02*
Y94615D01*
X136270Y94107D01*
X136778Y94615D01*
Y95631D01*
X135001Y87518D02*
X134747Y87771D01*
X134239D01*
X133985Y87518D01*
Y86502D01*
X134239Y86248D01*
X134747D01*
X135001Y86502D01*
Y87010D01*
X134493D01*
X135509Y86248D02*
Y87771D01*
X136524Y86248D01*
Y87771D01*
X137032D02*
Y86248D01*
X137794D01*
X138048Y86502D01*
Y87518D01*
X137794Y87771D01*
X137032D01*
X133985Y88788D02*
Y90312D01*
X134747D01*
X135001Y90058D01*
Y89550D01*
X134747Y89296D01*
X133985D01*
X134493D02*
X135001Y88788D01*
X135509Y90312D02*
X136524Y88788D01*
Y90312D02*
X135509Y88788D01*
X133985Y92837D02*
X135001D01*
X134493D01*
Y91313D01*
X135509Y92837D02*
X136524Y91313D01*
Y92837D02*
X135509Y91313D01*
D16*
X111633Y81518D02*
D03*
Y79518D02*
D03*
Y87297D02*
D03*
Y93297D02*
D03*
Y91297D02*
D03*
Y89297D02*
D03*
D17*
X132080Y93868D02*
D03*
Y91328D02*
D03*
Y88788D02*
D03*
D18*
Y86248D02*
D03*
M02*
