G04 Layer_Physical_Order=1*
G04 Layer_Color=255*
%FSLAX43Y43*%
%MOMM*%
G71*
G01*
G75*
%ADD10R,3.300X1.800*%
%ADD11R,1.000X1.800*%
%ADD12R,1.700X2.000*%
%ADD13R,1.300X0.900*%
%ADD14R,2.000X1.700*%
%ADD15C,0.500*%
%ADD16C,0.254*%
%ADD17O,2.700X1.500*%
%ADD18O,2.800X1.800*%
%ADD19R,2.800X1.800*%
G36*
X133703Y62766D02*
X101374D01*
Y95222D01*
X133703D01*
Y62766D01*
D02*
G37*
%LPC*%
G36*
X132987Y94761D02*
X127616D01*
Y93537D01*
X127494Y93500D01*
X127476Y93527D01*
X127079Y93792D01*
X126611Y93886D01*
X126361D01*
Y92662D01*
X126111D01*
Y92412D01*
X124437D01*
X124481Y92194D01*
X124746Y91797D01*
X125143Y91532D01*
X125269Y91506D01*
Y91379D01*
X125104Y91347D01*
X124674Y91059D01*
X124386Y90629D01*
X124326Y90325D01*
X111527D01*
X110785Y91067D01*
X110570Y91210D01*
X110316Y91261D01*
X106442D01*
X106331Y91427D01*
X106080Y91595D01*
Y91722D01*
X106259Y91841D01*
X106491Y92188D01*
X106523Y92348D01*
X104902D01*
X103281D01*
X103313Y92188D01*
X103545Y91841D01*
X103724Y91722D01*
Y91595D01*
X103473Y91427D01*
X103219Y91047D01*
X103129Y90598D01*
X103219Y90149D01*
X103473Y89769D01*
X103634Y89661D01*
Y89535D01*
X103473Y89427D01*
X103219Y89047D01*
X103129Y88598D01*
X103219Y88149D01*
X103473Y87769D01*
X103634Y87661D01*
Y87535D01*
X103473Y87427D01*
X103219Y87047D01*
X103129Y86598D01*
X103219Y86149D01*
X103473Y85769D01*
X103853Y85515D01*
X104302Y85425D01*
X105502D01*
X105951Y85515D01*
X106331Y85769D01*
X106442Y85935D01*
X109204D01*
X109458Y85986D01*
X109673Y86129D01*
X110130Y86586D01*
X114533D01*
X114730Y86390D01*
X114677Y86263D01*
X114557D01*
Y83663D01*
X114794D01*
Y82172D01*
X114207D01*
Y79372D01*
X116707D01*
Y82172D01*
X116120D01*
Y83663D01*
X116357D01*
Y86263D01*
X116120D01*
Y86600D01*
X116069Y86854D01*
X115926Y87069D01*
X115277Y87718D01*
X115141Y87808D01*
X115179Y87935D01*
X121439D01*
X122261Y87113D01*
X122476Y86970D01*
X122730Y86919D01*
X124490D01*
X124674Y86645D01*
X124937Y86469D01*
X124898Y86342D01*
X124311D01*
Y85626D01*
X122939D01*
Y86213D01*
X120139D01*
Y85626D01*
X118657D01*
Y86263D01*
X116857D01*
Y83663D01*
X118657D01*
Y84300D01*
X120139D01*
Y83713D01*
X122939D01*
Y84300D01*
X124311D01*
Y83742D01*
X125448D01*
Y78888D01*
X120590Y74030D01*
X120447Y73815D01*
X120396Y73561D01*
Y71150D01*
X120159D01*
Y68550D01*
X120396D01*
Y67837D01*
X120447Y67583D01*
X120590Y67368D01*
X121987Y65972D01*
Y64259D01*
X124487D01*
Y67059D01*
X122774D01*
X121722Y68112D01*
Y68550D01*
X121959D01*
Y71150D01*
X121722D01*
Y73286D01*
X126580Y78144D01*
X126723Y78359D01*
X126774Y78613D01*
Y83742D01*
X127911D01*
Y84436D01*
X132733D01*
Y87268D01*
X131463D01*
Y89389D01*
Y91929D01*
X132987D01*
Y94761D01*
D02*
G37*
G36*
X125861Y93886D02*
X125611D01*
X125143Y93792D01*
X124746Y93527D01*
X124481Y93130D01*
X124437Y92912D01*
X125861D01*
Y93886D01*
D02*
G37*
G36*
X105502Y93669D02*
X105152D01*
Y92848D01*
X106523D01*
X106491Y93008D01*
X106259Y93355D01*
X105912Y93587D01*
X105502Y93669D01*
D02*
G37*
G36*
X104652D02*
X104302D01*
X103892Y93587D01*
X103545Y93355D01*
X103313Y93008D01*
X103281Y92848D01*
X104652D01*
Y93669D01*
D02*
G37*
G36*
X117507Y93263D02*
X113407D01*
Y90663D01*
X117507D01*
Y93263D01*
D02*
G37*
G36*
X113957Y86163D02*
X113407D01*
Y85213D01*
X113957D01*
Y86163D01*
D02*
G37*
G36*
X112907D02*
X112357D01*
Y85213D01*
X112907D01*
Y86163D01*
D02*
G37*
G36*
X113957Y84713D02*
X113407D01*
Y83763D01*
X113957D01*
Y84713D01*
D02*
G37*
G36*
X112907D02*
X112357D01*
Y83763D01*
X112907D01*
Y84713D01*
D02*
G37*
G36*
X122839Y83413D02*
X121789D01*
Y82513D01*
X122839D01*
Y83413D01*
D02*
G37*
G36*
X121289D02*
X120239D01*
Y82513D01*
X121289D01*
Y83413D01*
D02*
G37*
G36*
X122839Y82013D02*
X121789D01*
Y81113D01*
X122839D01*
Y82013D01*
D02*
G37*
G36*
X121289D02*
X120239D01*
Y81113D01*
X121289D01*
Y82013D01*
D02*
G37*
G36*
X113907Y82072D02*
X113007D01*
Y81022D01*
X113907D01*
Y82072D01*
D02*
G37*
G36*
X112507D02*
X111607D01*
Y81022D01*
X112507D01*
Y82072D01*
D02*
G37*
G36*
X113907Y80522D02*
X113007D01*
Y79472D01*
X113907D01*
Y80522D01*
D02*
G37*
G36*
X112507D02*
X111607D01*
Y79472D01*
X112507D01*
Y80522D01*
D02*
G37*
G36*
X120809Y78150D02*
X116709D01*
Y75550D01*
X120809D01*
Y78150D01*
D02*
G37*
G36*
X106523Y75362D02*
X105152D01*
Y74541D01*
X105502D01*
X105912Y74623D01*
X106259Y74855D01*
X106491Y75202D01*
X106523Y75362D01*
D02*
G37*
G36*
X104652D02*
X103281D01*
X103313Y75202D01*
X103545Y74855D01*
X103892Y74623D01*
X104302Y74541D01*
X104652D01*
Y75362D01*
D02*
G37*
G36*
X113218Y68100D02*
X112518D01*
Y67600D01*
X113218D01*
Y68100D01*
D02*
G37*
G36*
X112018D02*
X111318D01*
Y67600D01*
X112018D01*
Y68100D01*
D02*
G37*
G36*
X127087Y66959D02*
X126187D01*
Y65909D01*
X127087D01*
Y66959D01*
D02*
G37*
G36*
X125687D02*
X124787D01*
Y65909D01*
X125687D01*
Y66959D01*
D02*
G37*
G36*
X117209D02*
X116309D01*
Y65909D01*
X117209D01*
Y66959D01*
D02*
G37*
G36*
X115809D02*
X114909D01*
Y65909D01*
X115809D01*
Y66959D01*
D02*
G37*
G36*
X127087Y65409D02*
X126187D01*
Y64359D01*
X127087D01*
Y65409D01*
D02*
G37*
G36*
X125687D02*
X124787D01*
Y64359D01*
X125687D01*
Y65409D01*
D02*
G37*
G36*
X117209Y65409D02*
X116309D01*
Y64359D01*
X117209D01*
Y65409D01*
D02*
G37*
G36*
X115809D02*
X114909D01*
Y64359D01*
X115809D01*
Y65409D01*
D02*
G37*
G36*
X105502Y78785D02*
X104302D01*
X103853Y78695D01*
X103473Y78441D01*
X103219Y78061D01*
X103129Y77612D01*
X103219Y77163D01*
X103473Y76783D01*
X103724Y76615D01*
Y76488D01*
X103545Y76369D01*
X103313Y76022D01*
X103281Y75862D01*
X104902D01*
X106523D01*
X106491Y76022D01*
X106259Y76369D01*
X106080Y76488D01*
Y76615D01*
X106331Y76783D01*
X106410Y76901D01*
X106555Y76912D01*
X109779Y73687D01*
X109994Y73544D01*
X110248Y73493D01*
X111218D01*
Y71806D01*
X111605D01*
Y70700D01*
X111218D01*
Y69000D01*
X111318D01*
Y68600D01*
X112268D01*
X113218D01*
Y69000D01*
X113318D01*
Y69187D01*
X115559D01*
Y68550D01*
X117359D01*
Y71150D01*
X115559D01*
Y70513D01*
X113318D01*
Y70700D01*
X112931D01*
Y71806D01*
X113318D01*
Y73493D01*
X116450D01*
X118096Y71847D01*
Y71150D01*
X117859D01*
Y68550D01*
X118096D01*
Y67059D01*
X117509D01*
Y64259D01*
X120009D01*
Y67059D01*
X119422D01*
Y68550D01*
X119659D01*
Y71150D01*
X119422D01*
Y72122D01*
X119371Y72376D01*
X119228Y72591D01*
X117194Y74625D01*
X116979Y74768D01*
X116725Y74819D01*
X113318D01*
Y75006D01*
X111218D01*
Y74819D01*
X110523D01*
X107261Y78081D01*
X107046Y78224D01*
X106792Y78275D01*
X106442D01*
X106331Y78441D01*
X105951Y78695D01*
X105502Y78785D01*
D02*
G37*
%LPD*%
D10*
X115457Y91963D02*
D03*
X118759Y76850D02*
D03*
D11*
X113157Y84963D02*
D03*
X117757D02*
D03*
X115457D02*
D03*
X118759Y69850D02*
D03*
X121059D02*
D03*
X116459D02*
D03*
D12*
X115457Y80772D02*
D03*
X112757D02*
D03*
X125937Y65659D02*
D03*
X123237D02*
D03*
X116059D02*
D03*
X118759D02*
D03*
D13*
X112268Y69850D02*
D03*
Y68350D02*
D03*
Y74156D02*
D03*
Y72656D02*
D03*
D14*
X121539Y84963D02*
D03*
Y82263D02*
D03*
D15*
X100711Y62103D02*
Y95885D01*
X117757Y84963D02*
X126032D01*
X126111Y78613D02*
Y85042D01*
X121059Y73561D02*
X126111Y78613D01*
X121059Y69850D02*
Y73561D01*
Y67837D02*
Y69850D01*
Y67837D02*
X123237Y65659D01*
X118759D02*
Y69850D01*
X112268Y69850D02*
Y72656D01*
Y69850D02*
X116459D01*
X118759D02*
Y72122D01*
X116725Y74156D02*
X118759Y72122D01*
X106792Y77612D02*
X110248Y74156D01*
X104902Y77612D02*
X106792D01*
X110248Y74156D02*
X112268D01*
X116725D01*
X104902Y88598D02*
X121714D01*
X122730Y87582D01*
X126111D01*
X104902Y90598D02*
X110316D01*
X111252Y89662D01*
X125651D01*
X126111Y90122D01*
X104902Y86598D02*
X109204D01*
X109855Y87249D01*
X114808D01*
X115457Y86600D01*
Y80772D02*
Y86600D01*
X100711Y62103D02*
X134366D01*
Y95885D01*
X100711D02*
X134366D01*
D16*
X128270Y86614D02*
Y85598D01*
X128778Y85090D01*
X129286Y85598D01*
Y86614D01*
X129794D02*
X130301D01*
X130047D01*
Y85090D01*
X129794D01*
X130301D01*
X131063D02*
Y86614D01*
X132079Y85090D01*
Y86614D01*
X129286Y93853D02*
X129032Y94107D01*
X128524D01*
X128270Y93853D01*
Y92837D01*
X128524Y92583D01*
X129032D01*
X129286Y92837D01*
Y93345D01*
X128778D01*
X129794Y92583D02*
Y94107D01*
X130809Y92583D01*
Y94107D01*
X131317D02*
Y92583D01*
X132079D01*
X132333Y92837D01*
Y93853D01*
X132079Y94107D01*
X131317D01*
X128270Y87503D02*
Y89027D01*
X129032D01*
X129286Y88773D01*
Y88265D01*
X129032Y88011D01*
X128270D01*
X128778D02*
X129286Y87503D01*
X129794Y89027D02*
X130809Y87503D01*
Y89027D02*
X129794Y87503D01*
X128270Y91567D02*
X129286D01*
X128778D01*
Y90043D01*
X129794Y91567D02*
X130809Y90043D01*
Y91567D02*
X129794Y90043D01*
D17*
X104902Y77612D02*
D03*
Y75612D02*
D03*
Y86598D02*
D03*
Y92598D02*
D03*
Y90598D02*
D03*
Y88598D02*
D03*
D18*
X126111Y92662D02*
D03*
Y90122D02*
D03*
Y87582D02*
D03*
D19*
Y85042D02*
D03*
M02*
