%FSDAX23Y23*%
%MOMM*%
%SFA1B1*%

%IPPOS*%
%ADD10R,1.699997X1.099998*%
%ADD11R,3.299993X1.799996*%
%ADD12R,0.999998X1.799996*%
%ADD13R,0.899998X0.699999*%
%ADD14R,1.099998X1.699997*%
%ADD15C,0.499999*%
%ADD16C,0.349999*%
%ADD17C,0.253999*%
%ADD18R,2.499995X1.799996*%
%ADD19O,2.499995X1.799996*%
%ADD20O,2.499995X1.499997*%
%ADD21C,0.127000*%
%ADD22C,0.507999*%
%ADD23C,1.015998*%
%ADD24C,2.031996*%
%ADD25C,4.063992*%
%ADD26C,8.127984*%
%ADD27C,16.255967*%
%LNxv11_board-1*%
%LPD*%
%SRX1Y1I0J0*%
G54D21*
X133639Y62829D02*
X101437D01*
Y95158*
X133639*
Y62829*
G54D17*
X133512Y62956D02*
X101564D01*
Y95031*
X133512*
Y62956*
G54D22*
X133258Y63210D02*
X101818D01*
Y94777*
X133258*
Y63210*
G54D23*
X132750Y63718D02*
X102326D01*
Y94269*
X132750*
Y63718*
G54D24*
X131734Y64734D02*
X103342D01*
Y93253*
X131734*
Y64734*
G54D25*
X129702Y66766D02*
X105374D01*
Y91221*
X129702*
Y66766*
G54D26*
X125638Y70830D02*
X109438D01*
Y87157*
X125638*
Y70830*
G54D27*
X117510Y78958D02*
X117566D01*
Y79029*
X117510*
Y78958*
%LNxv11_board-2*%
%LPC*%
%SRX1Y1I0J0*%
G36*
X132986Y94760D02*
X127615D01*
Y93321*
X127488Y93282*
X127325Y93526*
X126928Y93791*
X126460Y93885*
X126360*
Y92661*
X126110*
Y92411*
X124586*
X124630Y92193*
X124895Y91796*
X125292Y91531*
X125418Y91505*
Y91378*
X125253Y91346*
X124823Y91058*
X124535Y90628*
X124460Y90247*
X111494*
X110730Y91012*
X110539Y91139*
X110315Y91183*
X106392*
X106230Y91426*
X105979Y91594*
Y91721*
X106158Y91840*
X106390Y92187*
X106422Y92347*
X104901*
X103380*
X103412Y92187*
X103644Y91840*
X103823Y91721*
Y91594*
X103572Y91426*
X103318Y91046*
X103228Y90597*
X103318Y90148*
X103572Y89768*
X103733Y89660*
Y89534*
X103572Y89426*
X103318Y89046*
X103228Y88597*
X103318Y88148*
X103572Y87768*
X103733Y87660*
Y87534*
X103572Y87426*
X103318Y87046*
X103228Y86597*
X103318Y86148*
X103572Y85768*
X103952Y85514*
X104401Y85424*
X105401*
X105850Y85514*
X106230Y85768*
X106392Y86011*
X109203*
X109427Y86055*
X109618Y86182*
X110097Y86662*
X114564*
X114837Y86389*
X114790Y86262*
X114556*
Y83662*
X114870*
Y82021*
X114506*
Y79521*
X116406*
Y82021*
X116042*
Y83662*
X116356*
Y86262*
X116042*
Y86599*
X115998Y86823*
X115871Y87014*
X115222Y87663*
X115031Y87790*
X114807Y87834*
X109854*
X109630Y87790*
X109439Y87663*
X108960Y87183*
X106392*
X106230Y87426*
X106069Y87534*
Y87660*
X106230Y87768*
X106392Y88011*
X121470*
X122314Y87166*
X122505Y87039*
X122729Y86995*
X124588*
X124823Y86644*
X125086Y86468*
X125047Y86341*
X124460*
Y85548*
X122788*
Y85912*
X120288*
Y85548*
X118656*
Y86262*
X116856*
Y83662*
X118656*
Y84376*
X120288*
Y84012*
X122788*
Y84376*
X124460*
Y83741*
X125524*
Y78855*
X120643Y73975*
X120516Y73784*
X120472Y73560*
Y71149*
X120158*
Y68549*
X120472*
Y67836*
X120516Y67612*
X120643Y67421*
X122286Y65779*
Y64408*
X124186*
Y66908*
X122815*
X121644Y68079*
Y68549*
X121958*
Y71149*
X121644*
Y73317*
X126525Y78197*
X126652Y78388*
X126696Y78612*
Y83741*
X127760*
Y84435*
X132732*
Y87267*
X131462*
Y89388*
Y91928*
X132986*
Y94760*
G37*
G36*
X125860Y93885D02*
X125760D01*
X125292Y93791*
X124895Y93526*
X124630Y93129*
X124586Y92911*
X125860*
Y93885*
G37*
G36*
X105401Y93668D02*
X105151D01*
Y92847*
X106422*
X106390Y93007*
X106158Y93354*
X105811Y93586*
X105401Y93668*
G37*
G36*
X104651D02*
X104401D01*
X103991Y93586*
X103644Y93354*
X103412Y93007*
X103380Y92847*
X104651*
Y93668*
G37*
G36*
X117506Y93262D02*
X113406D01*
Y90662*
X117506*
Y93262*
G37*
G36*
X113956Y86162D02*
X113406D01*
Y85212*
X113956*
Y86162*
G37*
G36*
X112906D02*
X112356D01*
Y85212*
X112906*
Y86162*
G37*
G36*
X113956Y84712D02*
X113406D01*
Y83762*
X113956*
Y84712*
G37*
G36*
X112906D02*
X112356D01*
Y83762*
X112906*
Y84712*
G37*
G36*
X122688Y83112D02*
X121788D01*
Y82512*
X122688*
Y83112*
G37*
G36*
X121288D02*
X120388D01*
Y82512*
X121288*
Y83112*
G37*
G36*
X122688Y82012D02*
X121788D01*
Y81412*
X122688*
Y82012*
G37*
G36*
X121288D02*
X120388D01*
Y81412*
X121288*
Y82012*
G37*
G36*
X113606Y81921D02*
X113006D01*
Y81021*
X113606*
Y81921*
G37*
G36*
X112506D02*
X111906D01*
Y81021*
X112506*
Y81921*
G37*
G36*
X113606Y80521D02*
X113006D01*
Y79621*
X113606*
Y80521*
G37*
G36*
X112506D02*
X111906D01*
Y79621*
X112506*
Y80521*
G37*
G36*
X120808Y78149D02*
X116708D01*
Y75549*
X120808*
Y78149*
G37*
G36*
X106422Y75361D02*
X105151D01*
Y74540*
X105401*
X105811Y74622*
X106158Y74854*
X106390Y75201*
X106422Y75361*
G37*
G36*
X104651D02*
X103380D01*
X103412Y75201*
X103644Y74854*
X103991Y74622*
X104401Y74540*
X104651*
Y75361*
G37*
G36*
X113017Y68099D02*
X112517D01*
Y67699*
X113017*
Y68099*
G37*
G36*
X112017D02*
X111517D01*
Y67699*
X112017*
Y68099*
G37*
G36*
X126786Y66808D02*
X126186D01*
Y65908*
X126786*
Y66808*
G37*
G36*
X125686D02*
X125086D01*
Y65908*
X125686*
Y66808*
G37*
G36*
X116908D02*
X116308D01*
Y65908*
X116908*
Y66808*
G37*
G36*
X115808D02*
X115208D01*
Y65908*
X115808*
Y66808*
G37*
G36*
X126786Y65408D02*
X126186D01*
Y64508*
X126786*
Y65408*
G37*
G36*
X125686D02*
X125086D01*
Y64508*
X125686*
Y65408*
G37*
G36*
X116908D02*
X116308D01*
Y64508*
X116908*
Y65408*
G37*
G36*
X115808D02*
X115208D01*
Y64508*
X115808*
Y65408*
G37*
G36*
X105401Y78784D02*
X104401D01*
X103952Y78694*
X103572Y78440*
X103318Y78060*
X103228Y77611*
X103318Y77162*
X103572Y76782*
X103823Y76614*
Y76487*
X103644Y76368*
X103412Y76021*
X103380Y75861*
X104901*
X106422*
X106390Y76021*
X106158Y76368*
X105979Y76487*
Y76614*
X106230Y76782*
X106392Y77025*
X106548*
X109832Y73740*
X110023Y73613*
X110247Y73569*
X111327*
X111417Y73479*
Y73405*
Y73278*
Y71905*
X111681*
Y70599*
X111417*
Y69099*
X111452*
X111517Y68999*
Y68972*
Y68599*
X112267*
X113017*
Y68972*
Y68999*
X113082Y69099*
X113117*
Y69263*
X115558*
Y68549*
X117358*
Y71149*
X115558*
Y70435*
X113117*
Y70599*
X112853*
Y71905*
X113117*
Y73278*
Y73405*
Y73479*
X113207Y73569*
X116481*
X118172Y71878*
Y71149*
X117858*
Y68549*
X118172*
Y66908*
X117808*
Y64408*
X119708*
Y66908*
X119344*
Y68549*
X119658*
Y71149*
X119344*
Y72121*
X119300Y72345*
X119173Y72536*
X117139Y74570*
X116948Y74697*
X116724Y74741*
X113117*
Y74905*
X111417*
Y74741*
X110490*
X107206Y78026*
X107015Y78153*
X106791Y78197*
X106392*
X106230Y78440*
X105850Y78694*
X105401Y78784*
G37*
%LNxv11_board-3*%
%LPD*%
%SRX1Y1I0J0*%
G54D10*
X121538Y82262D03*
Y84962D03*
G54D11*
X118758Y76849D03*
X115456Y91962D03*
G54D12*
X116458Y69849D03*
X121058D03*
X118758D03*
X115456Y84962D03*
X117756D03*
X113156D03*
G54D13*
X112267Y72655D03*
Y74155D03*
Y68349D03*
Y69849D03*
G54D14*
X118758Y65658D03*
X116058D03*
X123236D03*
X125936D03*
X112756Y80771D03*
X115456D03*
G54D15*
X100710Y95884D02*
X134365D01*
Y62102D02*
Y95884D01*
X100710Y62102D02*
X134365D01*
X100710D02*
Y95884D01*
G54D16*
X115456Y80771D02*
Y86599D01*
X114807Y87248D02*
X115456Y86599D01*
X109854Y87248D02*
X114807D01*
X109203Y86597D02*
X109854Y87248D01*
X104901Y86597D02*
X109203D01*
X125650Y89661D02*
X126110Y90121D01*
X111251Y89661D02*
X125650D01*
X110315Y90597D02*
X111251Y89661D01*
X104901Y90597D02*
X110315D01*
X122729Y87581D02*
X126110D01*
X121713Y88597D02*
X122729Y87581D01*
X104901Y88597D02*
X121713D01*
X112267Y74155D02*
X116724D01*
X110247D02*
X112267D01*
X104901Y77611D02*
X106791D01*
X110247Y74155*
X116724D02*
X118758Y72121D01*
Y69849D02*
Y72121D01*
X112267Y69849D02*
X116458D01*
X112267D02*
Y72655D01*
X118758Y65658D02*
Y69849D01*
X121058Y67836D02*
X123236Y65658D01*
X121058Y67836D02*
Y69849D01*
Y73560*
X126110Y78612*
Y85041*
X117756Y84962D02*
X126031D01*
G54D17*
X128269Y86613D02*
Y85597D01*
X128777Y85089*
X129285Y85597*
Y86613*
X129793D02*
X130300D01*
X130046*
Y85089*
X129793*
X130300*
X131062D02*
Y86613D01*
X132078Y85089*
Y86613*
X128269Y91566D02*
X129285D01*
X128777*
Y90042*
X129793Y91566D02*
X130808Y90042D01*
Y91566D02*
X129793Y90042D01*
X128269Y87502D02*
Y89026D01*
X129031*
X129285Y88772*
Y88264*
X129031Y88010*
X128269*
X128777D02*
X129285Y87502D01*
X129793Y89026D02*
X130808Y87502D01*
Y89026D02*
X129793Y87502D01*
X129285Y93852D02*
X129031Y94106D01*
X128523*
X128269Y93852*
Y92836*
X128523Y92582*
X129031*
X129285Y92836*
Y93344*
X128777*
X129793Y92582D02*
Y94106D01*
X130808Y92582*
Y94106*
X131316D02*
Y92582D01*
X132078*
X132332Y92836*
Y93852*
X132078Y94106*
X131316*
G54D18*
X126110Y85041D03*
G54D19*
X126110Y87581D03*
Y90121D03*
Y92661D03*
G54D20*
X104901Y88597D03*
Y90597D03*
Y92597D03*
Y86597D03*
Y75611D03*
Y77611D03*
M02*